<mxfile host="app.diagrams.net" modified="2022-01-04T16:20:29.378Z" agent="5.0 (Windows NT 10.0; Win64; x64) AppleWebKit/537.36 (KHTML, like Gecko) Chrome/96.0.4664.110 Safari/537.36" etag="xsko5K_A-FCWzZxOWMCJ" version="16.2.1" type="github">
  <diagram id="7hTTOB7ClsqEDwTLcSCh" name="Page-1">
    <mxGraphModel dx="976" dy="587" grid="0" gridSize="10" guides="1" tooltips="1" connect="1" arrows="1" fold="1" page="1" pageScale="1" pageWidth="827" pageHeight="1169" math="0" shadow="0">
      <root>
        <mxCell id="0" />
        <mxCell id="1" parent="0" />
        <mxCell id="rkOdm2BE_4eYjGRkywIe-1" value="ThreadLocal&lt;br style=&quot;font-size: 16px;&quot;&gt;ThreadLocalMap" style="text;html=1;strokeColor=none;fillColor=none;align=left;verticalAlign=middle;whiteSpace=wrap;rounded=0;fontSize=16;" vertex="1" parent="1">
          <mxGeometry x="6" y="9" width="60" height="30" as="geometry" />
        </mxCell>
        <mxCell id="rkOdm2BE_4eYjGRkywIe-10" value="" style="group" vertex="1" connectable="0" parent="1">
          <mxGeometry x="26" y="132" width="256" height="326" as="geometry" />
        </mxCell>
        <mxCell id="rkOdm2BE_4eYjGRkywIe-2" value="&lt;font style=&quot;font-size: 14px&quot;&gt;Thread&lt;/font&gt;" style="rounded=0;whiteSpace=wrap;html=1;fontSize=16;align=left;verticalAlign=top;fontStyle=0;strokeWidth=2;" vertex="1" parent="rkOdm2BE_4eYjGRkywIe-10">
          <mxGeometry width="256" height="326" as="geometry" />
        </mxCell>
        <mxCell id="rkOdm2BE_4eYjGRkywIe-3" value="&lt;span&gt;ThreadLocalMap threadlocals&lt;/span&gt;" style="rounded=0;whiteSpace=wrap;html=1;fontSize=14;strokeWidth=2;align=left;verticalAlign=top;" vertex="1" parent="rkOdm2BE_4eYjGRkywIe-10">
          <mxGeometry x="9" y="34" width="237" height="276" as="geometry" />
        </mxCell>
        <mxCell id="rkOdm2BE_4eYjGRkywIe-4" value="&lt;font style=&quot;font-size: 13px&quot;&gt;Entry&lt;br&gt;(ThreadLocal, Object)&lt;/font&gt;" style="rounded=0;whiteSpace=wrap;html=1;fontSize=14;strokeWidth=2;align=left;verticalAlign=middle;strokeColor=#00FF00;" vertex="1" parent="rkOdm2BE_4eYjGRkywIe-10">
          <mxGeometry x="88" y="77" width="140" height="41" as="geometry" />
        </mxCell>
        <mxCell id="rkOdm2BE_4eYjGRkywIe-5" value="&lt;font style=&quot;font-size: 13px&quot;&gt;Entry&lt;br&gt;(ThreadLocal, Object)&lt;/font&gt;" style="rounded=0;whiteSpace=wrap;html=1;fontSize=14;strokeWidth=2;align=left;verticalAlign=middle;strokeColor=#00FF00;" vertex="1" parent="rkOdm2BE_4eYjGRkywIe-10">
          <mxGeometry x="88" y="118" width="140" height="41" as="geometry" />
        </mxCell>
        <mxCell id="rkOdm2BE_4eYjGRkywIe-6" value="&lt;font style=&quot;font-size: 13px&quot;&gt;Entry&lt;br&gt;(ThreadLocal, Object)&lt;/font&gt;" style="rounded=0;whiteSpace=wrap;html=1;fontSize=14;strokeWidth=2;align=left;verticalAlign=middle;strokeColor=#00FF00;" vertex="1" parent="rkOdm2BE_4eYjGRkywIe-10">
          <mxGeometry x="88" y="159" width="140" height="41" as="geometry" />
        </mxCell>
        <mxCell id="rkOdm2BE_4eYjGRkywIe-7" value="&lt;font style=&quot;font-size: 13px&quot;&gt;Entry&lt;br&gt;(ThreadLocal, Object)&lt;/font&gt;" style="rounded=0;whiteSpace=wrap;html=1;fontSize=14;strokeWidth=2;align=left;verticalAlign=middle;strokeColor=#00FF00;" vertex="1" parent="rkOdm2BE_4eYjGRkywIe-10">
          <mxGeometry x="88" y="200" width="140" height="41" as="geometry" />
        </mxCell>
        <mxCell id="rkOdm2BE_4eYjGRkywIe-8" value="" style="shape=curlyBracket;whiteSpace=wrap;html=1;rounded=1;fontSize=13;strokeWidth=2;" vertex="1" parent="rkOdm2BE_4eYjGRkywIe-10">
          <mxGeometry x="65" y="77" width="20" height="164" as="geometry" />
        </mxCell>
        <mxCell id="rkOdm2BE_4eYjGRkywIe-9" value="Entry&lt;br&gt;数组" style="text;html=1;strokeColor=none;fillColor=none;align=center;verticalAlign=middle;whiteSpace=wrap;rounded=0;fontSize=13;" vertex="1" parent="rkOdm2BE_4eYjGRkywIe-10">
          <mxGeometry x="14" y="142" width="60" height="30" as="geometry" />
        </mxCell>
      </root>
    </mxGraphModel>
  </diagram>
</mxfile>
